<svg width="24" height="24" viewBox="0 0 24 24" fill="none" xmlns="http://www.w3.org/2000/svg">
<g clip-path="url(#clip0_211_164)">
<path d="M18.581 2.14068L12.316 0.0516833C12.1109 -0.0166378 11.8891 -0.0166378 11.684 0.0516833L5.419 2.14068C4.42291 2.47156 3.55642 3.10794 2.94265 3.95939C2.32887 4.81085 1.99904 5.83407 2 6.88368V12.0007C2 19.5637 11.2 23.7407 11.594 23.9147C11.7218 23.9715 11.8601 24.0008 12 24.0008C12.1399 24.0008 12.2782 23.9715 12.406 23.9147C12.8 23.7407 22 19.5637 22 12.0007V6.88368C22.001 5.83407 21.6711 4.81085 21.0574 3.95939C20.4436 3.10794 19.5771 2.47156 18.581 2.14068V2.14068ZM20 12.0007C20 17.4557 13.681 21.0337 12 21.8897C10.317 21.0367 4 17.4697 4 12.0007V6.88368C4.00006 6.25396 4.19828 5.64022 4.56657 5.12943C4.93486 4.61863 5.45455 4.23668 6.052 4.03768L12 2.05468L17.948 4.03768C18.5455 4.23668 19.0651 4.61863 19.4334 5.12943C19.8017 5.64022 19.9999 6.25396 20 6.88368V12.0007Z" fill="#52F3FF"/>
<path d="M15.3 8.30034L11.112 12.5003L8.86804 10.1603C8.77798 10.0619 8.66913 9.98243 8.5479 9.92669C8.42666 9.87094 8.2955 9.84002 8.16213 9.83575C8.02877 9.83148 7.89589 9.85394 7.77134 9.90182C7.64679 9.94969 7.53308 10.022 7.43691 10.1145C7.34074 10.207 7.26405 10.3178 7.21137 10.4404C7.15869 10.563 7.13107 10.6949 7.13015 10.8283C7.12923 10.9618 7.15502 11.094 7.20601 11.2174C7.257 11.3407 7.33215 11.4525 7.42704 11.5463L9.73304 13.9463C9.90501 14.1321 10.1129 14.281 10.3441 14.3842C10.5752 14.4873 10.8249 14.5425 11.078 14.5463H11.111C11.3591 14.5472 11.6048 14.4987 11.834 14.4038C12.0632 14.3088 12.2712 14.1693 12.446 13.9933L16.718 9.72134C16.8113 9.62823 16.8854 9.51766 16.936 9.39593C16.9865 9.27421 17.0126 9.14371 17.0128 9.0119C17.0129 8.88008 16.9871 8.74953 16.9368 8.6277C16.8865 8.50587 16.8126 8.39514 16.7195 8.30184C16.6264 8.20853 16.5159 8.13448 16.3941 8.08391C16.2724 8.03334 16.1419 8.00724 16.0101 8.0071C15.8783 8.00696 15.7477 8.03278 15.6259 8.0831C15.5041 8.13341 15.3933 8.20723 15.3 8.30034V8.30034Z" fill="#52F3FF"/>
</g>
<defs>
<clipPath id="clip0_211_164">
<rect width="24" height="24" fill="white"/>
</clipPath>
</defs>
</svg>
