<svg width="24" height="24" viewBox="0 0 24 24" fill="none" xmlns="http://www.w3.org/2000/svg">
<g clip-path="url(#clip0_205_139)">
<path d="M13.0002 20.0001C14.3258 19.9985 15.5967 19.4712 16.534 18.5339C17.4714 17.5965 17.9987 16.3257 18.0002 15.0001V6.24308C18.0018 5.71744 17.899 5.19672 17.6978 4.7111C17.4966 4.22548 17.2011 3.78462 16.8282 3.41408L14.5862 1.17208C14.2157 0.799252 13.7748 0.503681 13.2892 0.302499C12.8036 0.101316 12.2829 -0.00147692 11.7572 7.84247e-05H7.00024C5.67465 0.00166628 4.4038 0.52896 3.46646 1.4663C2.52913 2.40364 2.00183 3.67448 2.00024 5.00008V15.0001C2.00183 16.3257 2.52913 17.5965 3.46646 18.5339C4.4038 19.4712 5.67465 19.9985 7.00024 20.0001H13.0002ZM4.00024 15.0001V5.00008C4.00024 4.20443 4.31631 3.44137 4.87892 2.87876C5.44153 2.31615 6.20459 2.00008 7.00024 2.00008C7.00024 2.00008 11.9192 2.01408 12.0002 2.02408V4.00008C12.0002 4.53051 12.211 5.03922 12.586 5.41429C12.9611 5.78936 13.4698 6.00008 14.0002 6.00008H15.9762C15.9862 6.08108 16.0002 15.0001 16.0002 15.0001C16.0002 15.7957 15.6842 16.5588 15.1216 17.1214C14.559 17.684 13.7959 18.0001 13.0002 18.0001H7.00024C6.20459 18.0001 5.44153 17.684 4.87892 17.1214C4.31631 16.5588 4.00024 15.7957 4.00024 15.0001V15.0001ZM22.0002 8.00008V19.0001C21.9987 20.3257 21.4714 21.5965 20.534 22.5339C19.5967 23.4712 18.3258 23.9985 17.0002 24.0001H8.00024C7.73503 24.0001 7.48067 23.8947 7.29314 23.7072C7.1056 23.5196 7.00024 23.2653 7.00024 23.0001C7.00024 22.7349 7.1056 22.4805 7.29314 22.293C7.48067 22.1054 7.73503 22.0001 8.00024 22.0001H17.0002C17.7959 22.0001 18.559 21.684 19.1216 21.1214C19.6842 20.5588 20.0002 19.7957 20.0002 19.0001V8.00008C20.0002 7.73486 20.1056 7.48051 20.2931 7.29297C20.4807 7.10544 20.735 7.00008 21.0002 7.00008C21.2655 7.00008 21.5198 7.10544 21.7074 7.29297C21.8949 7.48051 22.0002 7.73486 22.0002 8.00008Z" fill="white"/>
</g>
<defs>
<clipPath id="clip0_205_139">
<rect width="24" height="24" fill="white"/>
</clipPath>
</defs>
</svg>
